<svg xmlns="http://www.w3.org/2000/svg" viewBox="0 0 512 512">
  <path d="M156.6 384.9L125.7 354c-8.5-8.5-11.5-20.8-7.7-32.2l3-8.9c7.6-22.8 12.9-46.8 15.5-71.5l4.9-46.9L108.6 216c-8.5-8.5-11.5-20.8-7.7-32.2l3-8.9C126.9 109.2 160 41.2 212.2 5.2c5.5-3.8 12.8-5.7 21-4.7C239.2 1.8 248 3.5 256 7.5s16.8 5.7 22.8 4.4c8.2-1 15.5.9 21 4.7C352 41.2 385.1 109.2 408.1 174.9l3 8.9c3.8 11.4.8 23.7-7.7 32.2L371.6 216l4.9 46.9c2.6 24.7 7.9 48.7 15.5 71.5l3 8.9c3.8 11.4.8 23.7-7.7 32.2L356.4 384.9c-39.6 39.6-92.7 62.9-148.6 62.9s-109-23.3-148.6-62.9zM256 296c13.3 0 24-10.7 24-24V160c0-13.3-10.7-24-24-24s-24 10.7-24 24V272c0 13.3 10.7 24 24 24zM128 352h256c17.7 0 32 14.3 32 32v64c0 17.7-14.3 32-32 32H128c-17.7 0-32-14.3-32-32v-64c0-17.7 14.3-32 32-32z"/>
</svg>