{
  "accessors": [
    {
      "bufferView": 2,
      "componentType": 5126,
      "count": 88,
      "max": [
        0.5910428762435913,
        3.2414231300354004,
        3.7479441165924072
      ],
      "min": [
        -0.5910428762435913,
        -5.676004409790039,
        -0.20949238538742065
      ],
      "type": "VEC3"
    },
    {
      "bufferView": 2,
      "byteOffset": 1056,
      "componentType": 5126,
      "count": 88,
      "max": [
        0.6524438858032227,
        0.9622262120246887,
        0.05853833630681038
      ],
      "min": [
        -0.6524438858032227,
        -0.4332055151462555,
        -0.9907277822494507
      ],
      "type": "VEC3"
    },
    {
      "bufferView": 1,
      "componentType": 5126,
      "count": 88,
      "max": [
        0.6225887537002563,
        0.7500000596046448
      ],
      "min": [
        0.28575900197029114,
        0.3974126875400543
      ],
      "type": "VEC2"
    },
    {
      "bufferView": 0,
      "componentType": 5125,
      "count": 132,
      "type": "SCALAR"
    },
    {
      "bufferView": 2,
      "byteOffset": 2112,
      "componentType": 5126,
      "count": 2194,
      "max": [
        1.3956780433654785,
        4.49212646484375,
        6.556206703186035
      ],
      "min": [
        -1.3956780433654785,
        -9.637372016906738,
        -3.7853331565856934
      ],
      "type": "VEC3"
    },
    {
      "bufferView": 2,
      "byteOffset": 28440,
      "componentType": 5126,
      "count": 2194,
      "max": [
        0.9989141821861267,
        0.989838182926178,
        0.9526268243789673
      ],
      "min": [
        -0.9989141821861267,
        -0.9966946244239807,
        -0.927817702293396
      ],
      "type": "VEC3"
    },
    {
      "bufferView": 1,
      "byteOffset": 704,
      "componentType": 5126,
      "count": 2194,
      "max": [
        0.7440196871757507,
        0.8702248930931091
      ],
      "min": [
        0.3402777910232544,
        0.38144147396087646
      ],
      "type": "VEC2"
    },
    {
      "bufferView": 0,
      "byteOffset": 528,
      "componentType": 5125,
      "count": 3282,
      "type": "SCALAR"
    },
    {
      "bufferView": 2,
      "byteOffset": 54768,
      "componentType": 5126,
      "count": 244,
      "max": [
        0.7382914423942566,
        5.486825466156006,
        5.953120231628418
      ],
      "min": [
        -0.7382914423942566,
        -6.373490333557129,
        0.40494585037231445
      ],
      "type": "VEC3"
    },
    {
      "bufferView": 2,
      "byteOffset": 57696,
      "componentType": 5126,
      "count": 244,
      "max": [
        0.9822311997413635,
        0.9938095211982727,
        0.8868085741996765
      ],
      "min": [
        -0.9822311997413635,
        -0.9905232191085815,
        -0.8774163126945496
      ],
      "type": "VEC3"
    },
    {
      "bufferView": 1,
      "byteOffset": 18256,
      "componentType": 5126,
      "count": 244,
      "max": [
        0.6250001192092896,
        0.8726603984832764
      ],
      "min": [
        0.27874064445495605,
        0.39440155029296875
      ],
      "type": "VEC2"
    },
    {
      "bufferView": 0,
      "byteOffset": 13656,
      "componentType": 5125,
      "count": 372,
      "type": "SCALAR"
    },
    {
      "bufferView": 2,
      "byteOffset": 60624,
      "componentType": 5126,
      "count": 3968,
      "max": [
        0.49690455198287964,
        4.44144868850708,
        5.626162528991699
      ],
      "min": [
        -0.49690455198287964,
        4.014676570892334,
        5.199390411376953
      ],
      "type": "VEC3"
    },
    {
      "bufferView": 2,
      "byteOffset": 108240,
      "componentType": 5126,
      "count": 3968,
      "max": [
        0.9956573843955994,
        0.9847439527511597,
        0.9950827956199646
      ],
      "min": [
        -0.9956573843955994,
        -0.9847434759140015,
        -0.9950834512710571
      ],
      "type": "VEC3"
    },
    {
      "bufferView": 1,
      "byteOffset": 20208,
      "componentType": 5126,
      "count": 3968,
      "max": [
        1.0000001192092896,
        1.0
      ],
      "min": [
        0.0,
        0.0
      ],
      "type": "VEC2"
    },
    {
      "bufferView": 0,
      "byteOffset": 15144,
      "componentType": 5125,
      "count": 5760,
      "type": "SCALAR"
    }
  ],
  "asset": {
    "extras": {
      "author": "Dylan Spin (https://sketchfab.com/DylanSpin)",
      "license": "CC-BY-4.0 (http://creativecommons.org/licenses/by/4.0/)",
      "source": "https://sketchfab.com/3d-models/low-poly-baboon-50dab8a3d71a4929937c511536414011",
      "title": "Low Poly Baboon"
    },
    "generator": "Sketchfab-12.97.0",
    "version": "2.0"
  },
  "bufferViews": [
    {
      "buffer": 0,
      "byteLength": 38184,
      "name": "floatBufferViews",
      "target": 34963
    },
    {
      "buffer": 0,
      "byteLength": 51952,
      "byteOffset": 38184,
      "byteStride": 8,
      "name": "floatBufferViews",
      "target": 34962
    },
    {
      "buffer": 0,
      "byteLength": 155856,
      "byteOffset": 90136,
      "byteStride": 12,
      "name": "floatBufferViews",
      "target": 34962
    }
  ],
  "buffers": [
    {
      "byteLength": 245992,
      "uri": "scene.bin"
    }
  ],
  "materials": [
    {
      "doubleSided": true,
      "name": "Lighter",
      "pbrMetallicRoughness": {
        "baseColorFactor": [
          0.605342001017097,
          0.576944008884864,
          0.576944008884864,
          1.0
        ],
        "metallicFactor": 0.0,
        "roughnessFactor": 0.7763932022500211
      }
    },
    {
      "doubleSided": true,
      "name": "Body",
      "pbrMetallicRoughness": {
        "baseColorFactor": [
          0.239552,
          0.239552,
          0.239552,
          1.0
        ],
        "metallicFactor": 0.0,
        "roughnessFactor": 0.9413219833136804
      }
    },
    {
      "doubleSided": true,
      "name": "face",
      "pbrMetallicRoughness": {
        "baseColorFactor": [
          0.47207584929673163,
          0.18964642630881803,
          0.2167592528393753,
          1.0
        ],
        "metallicFactor": 0.0,
        "roughnessFactor": 0.8996672990456879
      }
    },
    {
      "doubleSided": true,
      "name": "material",
      "pbrMetallicRoughness": {
        "baseColorFactor": [
          0.069978,
          0.069978,
          0.069978,
          1.0
        ],
        "metallicFactor": 0.0,
        "roughnessFactor": 0.984352443507052
      }
    }
  ],
  "meshes": [
    {
      "name": "Cube_Lighter_0",
      "primitives": [
        {
          "attributes": {
            "NORMAL": 1,
            "POSITION": 0,
            "TEXCOORD_0": 2
          },
          "indices": 3,
          "material": 0,
          "mode": 4
        }
      ]
    },
    {
      "name": "Cube_Body_0",
      "primitives": [
        {
          "attributes": {
            "NORMAL": 5,
            "POSITION": 4,
            "TEXCOORD_0": 6
          },
          "indices": 7,
          "material": 1,
          "mode": 4
        }
      ]
    },
    {
      "name": "Cube_face_0",
      "primitives": [
        {
          "attributes": {
            "NORMAL": 9,
            "POSITION": 8,
            "TEXCOORD_0": 10
          },
          "indices": 11,
          "material": 2,
          "mode": 4
        }
      ]
    },
    {
      "name": "Cube_Eye_0",
      "primitives": [
        {
          "attributes": {
            "NORMAL": 13,
            "POSITION": 12,
            "TEXCOORD_0": 14
          },
          "indices": 15,
          "material": 3,
          "mode": 4
        }
      ]
    }
  ],
  "nodes": [
    {
      "children": [
        1
      ],
      "matrix": [
        1.0,
        0.0,
        0.0,
        0.0,
        0.0,
        2.220446049250313e-16,
        -1.0,
        0.0,
        0.0,
        1.0,
        2.220446049250313e-16,
        0.0,
        0.0,
        0.0,
        0.0,
        1.0
      ],
      "name": "Sketchfab_model"
    },
    {
      "children": [
        2
      ],
      "matrix": [
        0.009999999776482582,
        0.0,
        0.0,
        0.0,
        0.0,
        0.0,
        0.009999999776482582,
        0.0,
        0.0,
        -0.009999999776482582,
        0.0,
        0.0,
        0.0,
        0.0,
        0.0,
        1.0
      ],
      "name": "0831344893f141608f0550e9d4cbf10c.fbx"
    },
    {
      "children": [
        3
      ],
      "name": "RootNode"
    },
    {
      "children": [
        4,
        5,
        6,
        7
      ],
      "matrix": [
        148.96875,
        0.0,
        0.0,
        0.0,
        0.0,
        -1.629206793918314e-05,
        -99.99999999999868,
        0.0,
        0.0,
        99.99999999999868,
        -1.629206793918314e-05,
        0.0,
        0.0,
        353.2649230957031,
        -145.6839599609375,
        1.0
      ],
      "name": "Cube"
    },
    {
      "mesh": 0,
      "name": "Cube_Lighter_0"
    },
    {
      "mesh": 1,
      "name": "Cube_Body_0"
    },
    {
      "mesh": 2,
      "name": "Cube_face_0"
    },
    {
      "mesh": 3,
      "name": "Cube_Eye_0"
    }
  ],
  "scene": 0,
  "scenes": [
    {
      "name": "Sketchfab_Scene",
      "nodes": [
        0
      ]
    }
  ]
}
